<?xml version="1.0" standalone="no"?>
<!DOCTYPE svg PUBLIC "-//W3C//DTD SVG 20010904//EN"
 "http://www.w3.org/TR/2001/REC-SVG-20010904/DTD/svg10.dtd">
<svg version="1.0" xmlns="http://www.w3.org/2000/svg"
 width="1024.000000pt" height="1024.000000pt" viewBox="0 0 1024.000000 1024.000000"
 preserveAspectRatio="xMidYMid meet">
<metadata>
Created by potrace 1.14, written by Peter Selinger 2001-2017
</metadata>
<g transform="translate(0.000000,1024.000000) scale(0.100000,-0.100000)"
fill="#000000" stroke="none">
<path d="M0 5120 l0 -5120 5120 0 5120 0 0 5120 0 5120 -5120 0 -5120 0 0
-5120z m5332 2582 c50 -22 109 -76 135 -125 15 -27 19 -64 21 -234 l3 -203
-495 0 -496 0 0 93 c0 121 19 186 72 243 58 62 107 75 258 67 l116 -6 26 44
c79 133 224 182 360 121z m-1262 -271 l0 -110 -417 -3 c-408 -3 -419 -4 -474
-26 -80 -32 -142 -90 -181 -170 l-33 -67 -3 -393 -3 -393 -102 3 -102 3 -3
405 c-2 379 -1 409 17 470 22 70 76 167 119 214 47 50 140 114 200 136 88 33
148 37 580 39 l402 1 0 -109z m2904 85 c208 -59 366 -217 405 -404 7 -33 11
-198 11 -447 l0 -395 -104 0 -105 0 -4 393 c-2 275 -7 403 -15 429 -18 53 -86
134 -140 169 -90 57 -108 59 -554 59 l-408 0 0 111 0 111 428 -4 c362 -4 436
-7 486 -22z m-2331 -535 c18 -17 32 -45 38 -72 4 -24 8 -178 9 -341 l0 -298
310 0 309 0 3 341 3 341 33 29 c27 25 41 29 87 29 l55 0 0 -54 0 -53 65 -6
c173 -16 286 -135 288 -303 1 -64 -3 -80 -33 -140 -54 -106 -134 -158 -267
-171 l-53 -6 0 -98 0 -99 -495 0 -495 0 0 463 c0 255 3 467 8 471 4 5 29 5 57
2 36 -4 57 -13 78 -35z m308 19 c43 -24 49 -57 49 -278 0 -216 -7 -264 -40
-282 -30 -16 -76 -12 -101 9 -24 19 -24 21 -27 259 l-3 239 26 32 c28 32 60
40 96 21z m1309 -2145 l0 -1005 -182 2 -183 3 -32 64 -33 64 0 740 0 740 -130
197 c-71 109 -130 199 -130 201 0 2 155 3 345 1 l345 -3 0 -1004z m-2582 989
c234 -47 430 -222 496 -442 53 -181 18 -376 -88 -490 l-45 -48 48 -48 c136
-134 166 -381 72 -582 -36 -77 -51 -98 -134 -182 -73 -75 -162 -130 -272 -169
l-80 -28 -462 -3 -463 -3 0 804 0 805 -102 151 c-57 84 -118 174 -135 201
l-33 50 561 0 c466 0 573 -3 637 -16z m1452 -41 c13 -32 44 -121 70 -198 26
-77 79 -230 118 -340 39 -110 109 -312 157 -450 123 -357 262 -755 301 -864
19 -51 34 -95 34 -97 0 -2 -103 -4 -229 -4 l-230 0 -20 54 c-11 29 -34 94 -52
145 l-32 91 -277 0 -278 0 -16 -42 c-9 -24 -31 -88 -50 -143 l-33 -100 -235
-3 -235 -2 102 297 c57 164 128 366 159 448 31 83 88 240 126 350 38 110 88
252 111 315 23 63 61 169 84 235 41 115 101 279 124 338 l11 27 134 0 135 0
21 -57z m2382 -25 c-54 -46 -159 -131 -233 -189 -74 -58 -161 -130 -193 -160
-49 -44 -314 -338 -429 -474 l-27 -33 153 -218 c84 -121 239 -340 343 -489
105 -148 205 -291 223 -317 l32 -48 -283 0 -283 0 -242 368 -243 367 0 338 0
338 147 162 c80 89 204 224 275 300 l130 137 365 0 365 0 -100 -82z m-3653
-2289 l35 -21 -24 -18 c-20 -15 -26 -16 -49 -4 -66 35 -138 -48 -101 -116 14
-26 74 -36 103 -17 20 13 25 13 45 -3 l22 -18 -25 -20 c-69 -55 -172 -25 -203
57 -21 58 17 148 73 171 36 15 89 10 124 -11z m246 7 c57 -24 72 -81 34 -131
-21 -26 -21 -28 -6 -61 9 -19 21 -34 27 -34 5 0 10 -4 10 -10 0 -5 -13 -10
-29 -10 -24 0 -34 8 -52 40 -14 24 -30 40 -41 40 -14 0 -18 -8 -18 -40 0 -35
-3 -40 -22 -40 -23 0 -23 3 -25 130 l-2 130 45 0 c24 0 60 -6 79 -14z m344
-121 c28 -63 51 -120 51 -125 0 -20 -38 -9 -54 15 -14 22 -24 25 -71 25 -45 0
-55 -3 -60 -20 -4 -14 -15 -20 -36 -20 -16 0 -29 2 -29 4 0 2 27 61 60 131 49
104 63 125 74 116 8 -6 37 -63 65 -126z m281 110 c0 -23 -4 -25 -45 -25 -43 0
-45 -1 -45 -30 0 -29 2 -30 45 -30 41 0 45 -2 45 -25 0 -23 -4 -25 -44 -25
l-45 0 -3 -52 c-3 -46 -6 -53 -25 -56 -23 -3 -23 -3 -23 132 l0 136 70 0 c68
0 70 -1 70 -25z m230 0 c0 -20 -5 -25 -25 -25 l-25 0 0 -105 0 -105 -25 0 -25
0 0 105 0 105 -35 0 c-27 0 -35 4 -35 18 0 29 8 32 92 32 77 0 78 0 78 -25z
m314 2 c19 -13 26 -26 26 -50 0 -18 -5 -38 -12 -45 -10 -10 -7 -16 10 -28 28
-19 29 -67 2 -94 -16 -16 -33 -20 -90 -20 l-70 0 0 131 0 131 54 -4 c30 -2 66
-12 80 -21z m311 -2 c0 -17 -8 -20 -57 -23 -57 -3 -58 -4 -58 -32 0 -30 1 -30
55 -30 38 0 55 -4 55 -13 0 -24 -24 -37 -67 -37 -41 0 -43 -1 -43 -30 0 -30 1
-30 55 -30 48 0 55 -2 55 -20 0 -18 -7 -20 -75 -20 l-75 0 0 130 0 131 78 -3
c69 -3 77 -5 77 -23z m255 0 c0 -23 -3 -25 -51 -25 -49 0 -50 -1 -47 -27 3
-26 7 -28 51 -31 39 -3 47 -6 47 -23 0 -16 -7 -19 -44 -19 -40 0 -45 -3 -55
-30 l-10 -30 60 0 c56 0 59 -1 59 -25 0 -25 -1 -25 -80 -25 l-80 0 0 130 0
130 75 0 c73 0 75 -1 75 -25z m255 -5 c32 -30 34 -84 4 -116 l-21 -22 31 -46
c17 -24 31 -47 31 -50 0 -3 -14 -6 -30 -6 -25 0 -35 8 -58 45 -27 44 -52 59
-52 30 0 -8 7 -15 15 -15 9 0 15 -9 15 -24 0 -19 -7 -26 -30 -31 -16 -4 -34
-4 -40 0 -6 4 -10 58 -10 137 l0 130 60 -4 c45 -3 66 -10 85 -28z m208 -15
c16 -25 30 -45 32 -45 3 0 16 20 31 45 21 37 31 45 56 45 l30 0 -23 -37 c-12
-21 -33 -52 -46 -70 -19 -26 -23 -44 -23 -97 0 -64 -1 -66 -25 -66 -24 0 -25
3 -25 61 0 53 -5 69 -40 128 -22 37 -40 70 -40 74 0 4 10 7 23 7 15 0 30 -13
50 -45z m-3341 -177 c3 -131 6 -148 31 -204 36 -77 104 -144 182 -181 l60 -28
1840 0 1840 0 53 24 c70 32 153 122 183 198 17 46 23 86 27 196 l5 137 105 0
105 0 -6 -172 c-4 -142 -9 -184 -27 -235 -46 -132 -151 -256 -263 -311 -132
-65 -8 -62 -2027 -62 -2023 0 -1894 -4 -2029 63 -82 40 -184 140 -228 223 -52
97 -63 158 -63 336 l0 158 104 0 104 0 4 -142z"/>
<path d="M5151 7494 c-30 -25 -58 -95 -46 -114 3 -6 55 -10 116 -10 l109 0 0
35 c0 72 -43 115 -114 115 -22 0 -45 -9 -65 -26z"/>
<path d="M5490 6601 l0 -121 43 0 c49 0 81 19 102 60 42 80 -5 156 -108 175
l-37 7 0 -121z"/>
<path d="M3197 5423 c-4 -3 -7 -86 -7 -183 l0 -177 68 -6 c108 -11 309 -8 359
4 174 44 166 302 -11 354 -51 16 -395 22 -409 8z"/>
<path d="M3190 4475 l0 -185 210 0 c189 0 215 2 249 20 139 71 146 260 11 328
-42 21 -56 22 -257 22 l-213 0 0 -185z"/>
<path d="M4955 4899 c-27 -66 -115 -331 -115 -346 0 -10 32 -13 135 -13 74 0
135 4 135 9 0 11 -119 361 -129 380 -6 9 -14 -1 -26 -30z"/>
<path d="M4030 3420 c0 -40 1 -41 31 -38 39 4 59 30 43 56 -6 9 -25 18 -43 20
-30 3 -31 2 -31 -38z"/>
<path d="M4373 3392 c-6 -4 -15 -20 -18 -35 -7 -25 -5 -27 25 -27 28 0 31 2
24 23 -11 37 -19 46 -31 39z"/>
<path d="M5190 3435 c0 -20 5 -25 24 -25 27 0 40 22 23 39 -21 21 -47 13 -47
-14z"/>
<path d="M5190 3330 c0 -29 2 -31 33 -28 27 2 32 7 32 28 0 21 -5 26 -32 28
-31 3 -33 1 -33 -28z"/>
<path d="M6000 3420 c0 -35 3 -40 23 -40 29 0 47 18 47 46 0 22 -17 34 -51 34
-16 0 -19 -7 -19 -40z"/>
</g>
</svg>
